<svg id="instagram" xmlns="http://www.w3.org/2000/svg" width="17" height="17" viewBox="0 0 17 17">
  <g id="Group_97" data-name="Group 97">
    <g id="Group_96" data-name="Group 96">
      <path id="Path_61" data-name="Path 61" d="M11.688,0H5.313A5.313,5.313,0,0,0,0,5.313v6.375A5.313,5.313,0,0,0,5.313,17h6.375A5.313,5.313,0,0,0,17,11.688V5.313A5.313,5.313,0,0,0,11.688,0Zm3.719,11.688a3.723,3.723,0,0,1-3.719,3.719H5.313a3.723,3.723,0,0,1-3.719-3.719V5.313A3.723,3.723,0,0,1,5.313,1.594h6.375a3.723,3.723,0,0,1,3.719,3.719Z" fill="#fff"/>
    </g>
  </g>
  <g id="Group_99" data-name="Group 99" transform="translate(4.25 4.25)">
    <g id="Group_98" data-name="Group 98">
      <path id="Path_62" data-name="Path 62" d="M132.25,128a4.25,4.25,0,1,0,4.25,4.25A4.25,4.25,0,0,0,132.25,128Zm0,6.906a2.656,2.656,0,1,1,2.656-2.656A2.66,2.66,0,0,1,132.25,134.906Z" transform="translate(-128 -128)" fill="#fff"/>
    </g>
  </g>
  <g id="Group_101" data-name="Group 101" transform="translate(12.502 3.365)">
    <g id="Group_100" data-name="Group 100">
      <circle id="Ellipse_3" data-name="Ellipse 3" cx="0.566" cy="0.566" r="0.566" fill="#fff"/>
    </g>
  </g>
</svg>
