<svg xmlns="http://www.w3.org/2000/svg" width="392.561" height="24" viewBox="0 0 392.561 24">
  <g id="Group_2151" data-name="Group 2151" transform="translate(-763.72 -7310)">
    <g id="Group_267" data-name="Group 267" transform="translate(8.281 172.689)">
      <text id="Trending_cars" data-name="Trending cars" transform="translate(829.561 7155.311)" fill="#8e8e8e" font-size="16" font-family="Kanit-Regular, Kanit" letter-spacing="-0.02em"><tspan x="-46.04" y="0">Trending cars</tspan></text>
      <g id="_77584928316313447544152" data-name="77584928316313447544152" transform="translate(752.93 7136.304)">
        <path id="Path_7267" data-name="Path 7267" d="M23.584,17.629a1.923,1.923,0,0,0-1.8-1.228H20.013l.7-6.531h1.055a1.969,1.969,0,0,0,1.39-.569,1.977,1.977,0,0,0-1.372-3.388h-.648l.133-1.228a1.98,1.98,0,0,0-3.939-.41l-.176,1.634H10.645l.133-1.228A1.98,1.98,0,0,0,6.84,4.276L6.664,5.911H4.486a1.976,1.976,0,0,0-1.39.569,1.978,1.978,0,0,0,1.39,3.391H6.239L5.54,16.4H4.486a1.98,1.98,0,0,0,0,3.96h.63l-.13,1.213A1.98,1.98,0,1,0,8.921,22L9.1,20.361h6.509l-.13,1.213a1.976,1.976,0,0,0,1.757,2.178,2.192,2.192,0,0,0,.22,0,1.969,1.969,0,0,0,1.958-1.768l.194-1.624h2.16a1.977,1.977,0,0,0,1.39-.569,1.941,1.941,0,0,0,.428-2.164ZM9.526,16.4l.7-6.531h6.5L16.031,16.4Z" transform="translate(0 0)" fill="#8e8e8e"/>
        <path id="Path_7268" data-name="Path 7268" d="M13.126,16.42h-3.6l.7-6.531h2.9V5.929h-2.48L10.779,4.7A1.98,1.98,0,0,0,6.84,4.295L6.664,5.929H4.486A1.976,1.976,0,0,0,3.1,6.5a1.978,1.978,0,0,0,1.39,3.391H6.239l-.7,6.531H4.486a1.98,1.98,0,0,0,0,3.96h.63l-.13,1.213a1.98,1.98,0,1,0,3.935.421L9.1,20.38h4.029Z" transform="translate(0 -0.019)" fill="#8e8e8e"/>
      </g>
    </g>
    <g id="Group_268" data-name="Group 268" transform="translate(20.281 172.689)">
      <text id="Car_blog" data-name="Car blog" transform="translate(957.561 7155.311)" fill="#8e8e8e" font-size="16" font-family="Kanit-Regular, Kanit" letter-spacing="-0.02em"><tspan x="-28.72" y="0">Car blog</tspan></text>
      <path id="_9229725711595988886" data-name="9229725711595988886" d="M25.9,12.354h.919a.919.919,0,1,0,0-1.838H24.245l-1.1-2.758A4.645,4.645,0,0,0,18.914,5h-8A4.678,4.678,0,0,0,6.6,7.758L5.4,10.515H2.919a.919.919,0,0,0,0,1.838h.919A4.658,4.658,0,0,0,2,16.031v3.677a2.634,2.634,0,0,0,.919,2.022v1.655a2.708,2.708,0,0,0,2.758,2.758H7.515a2.708,2.708,0,0,0,2.758-2.758v-.919h9.192v.919a2.708,2.708,0,0,0,2.758,2.758h1.838a2.708,2.708,0,0,0,2.758-2.758V21.73a2.634,2.634,0,0,0,.919-2.022V16.031A4.658,4.658,0,0,0,25.9,12.354Zm-.919,4.6a.868.868,0,0,1-.919.919H21.3a.919.919,0,1,1,0-1.838h2.758A.868.868,0,0,1,24.981,16.95Zm-19.3-.919H8.435a.919.919,0,0,1,0,1.838H5.677a.919.919,0,0,1,0-1.838Zm4.045,4.6,1.1-2.114a2.768,2.768,0,0,1,2.482-1.563h3.217a2.709,2.709,0,0,1,2.482,1.563l1.1,2.114ZM8.343,8.493a2.7,2.7,0,0,1,2.482-1.655h8A2.829,2.829,0,0,1,21.4,8.493l1.287,2.942H7.056Z" transform="translate(893 7134)" fill="#8e8e8e"/>
    </g>
    <g id="Group_269" data-name="Group 269" transform="translate(-1.719 172.689)">
      <text id="Latest_offers" data-name="Latest offers" transform="translate(1115 7155.311)" fill="#8e8e8e" font-size="16" font-family="Kanit-Regular, Kanit" letter-spacing="-0.02em"><tspan x="-42.736" y="0">Latest offers</tspan></text>
      <g id="_17726084971582872986" data-name="17726084971582872986" transform="translate(1027.505 7120.771)">
        <path id="Path_7269" data-name="Path 7269" d="M34.223,23.016c-.119.912-.17,1.746-.355,2.549a1.188,1.188,0,0,0,.428,1.28c.562.523,1.062,1.109,1.609,1.639a.962.962,0,0,1,.016,1.581,9.28,9.28,0,0,1-.969.982A2.646,2.646,0,0,0,34,34.084c.477,2.324.428,2.45-1.84,2.682A3.143,3.143,0,0,0,29.3,38.842c-.916,2.007-1.055,2.058-2.961.969a3.235,3.235,0,0,0-3.613.019c-1.883,1.083-2.023,1.039-2.907-.921a3.187,3.187,0,0,0-2.9-2.141c-2.251-.235-2.31-.368-1.827-2.617a3.084,3.084,0,0,0-1.073-3.278c-1.658-1.5-1.658-1.666-.009-3.162a2.922,2.922,0,0,0,1.021-3.442.49.49,0,0,1-.018-.091c-.3-1.958-.313-2.107,1.623-2.295a3.436,3.436,0,0,0,3.33-2.533,4.575,4.575,0,0,1,.34-.65.938.938,0,0,1,1.436-.477c.733.38,1.49.708,2.219,1.1a1.137,1.137,0,0,0,1.2-.013c.729-.39,1.49-.721,2.222-1.1a.916.916,0,0,1,1.38.426,8.064,8.064,0,0,1,.632,1.223,2.535,2.535,0,0,0,2.649,1.9A6.069,6.069,0,0,1,33.4,22C34.068,22.159,34.265,22.443,34.223,23.016Z" fill="#8e8e8e"/>
        <path id="Path_7270" data-name="Path 7270" d="M44.648,35.72c-.013.06-.024.121-.042.18a3.688,3.688,0,0,0,1.453,4.56c.484.334.526.7.013,1.053a3.672,3.672,0,0,0-1.465,4.552c.164.5.021.79-.5.782a3.768,3.768,0,0,0-4,2.9c-.14.447-.4.6-.814.285-.048-.036-.116-.043-.165-.079a3.55,3.55,0,0,0-4.673.015c-.475.359-.828.265-1.006-.329-.007-.028-.037-.049-.046-.077a3.52,3.52,0,0,0-3.746-2.682c-.653.009-.843-.3-.638-.927a3.56,3.56,0,0,0-1.441-4.387c-.519-.365-.556-.745-.013-1.122A3.6,3.6,0,0,0,29,35.972c-.218-.659.088-.86.635-.86a3.618,3.618,0,0,0,3.8-2.755c.185-.56.493-.723,1-.355.024.018.052.03.077.049a3.487,3.487,0,0,0,4.594-.009c.505-.373.864-.3,1.07.343A3.635,3.635,0,0,0,44,35.13C44.3,35.128,44.819,35.1,44.648,35.72Z" transform="translate(-12.253 -11.699)" fill="#8e8e8e"/>
        <path id="Path_7271" data-name="Path 7271" d="M71.649,65.567a.984.984,0,0,1-.4.69q-3.37,3.378-6.753,6.754c-.355.355-.745.62-1.174.164-.384-.411-.128-.784.2-1.11q3.411-3.408,6.817-6.82c.279-.279.581-.472.976-.282a.583.583,0,0,1,.337.6Z" transform="translate(-42.849 -39.853)" fill="#f3f3f4"/>
        <path id="Path_7272" data-name="Path 7272" d="M62.031,65.822a2.043,2.043,0,0,1-1.909-2.059,2.1,2.1,0,0,1,2.113-1.976,2.046,2.046,0,0,1,1.937,2.135,1.991,1.991,0,0,1-2.141,1.9Z" transform="translate(-40.291 -37.212)" fill="#f3f3f4"/>
        <path id="Path_7273" data-name="Path 7273" d="M98.457,97.982a2.059,2.059,0,0,1,1.937,2.044,2.12,2.12,0,0,1-2.1,2,2.059,2.059,0,0,1-1.953-2.119,2,2,0,0,1,2.113-1.924Z" transform="translate(-71.117 -68.013)" fill="#f3f3f4"/>
      </g>
    </g>
  </g>
</svg>
