<svg xmlns="http://www.w3.org/2000/svg" width="146.8" height="24.344" viewBox="0 0 146.8 24.344">
  <g id="Group_266" data-name="Group 266" transform="translate(-61.451 -20.161)">
    <g id="Group_4" data-name="Group 4" transform="translate(87.18 20.161)">
      <g id="Path_13" data-name="Path 13" fill="rgba(255,255,255,0)">
        <path d="M 12.17200660705566 23.14401626586914 C 9.241276741027832 23.14401626586914 6.485966682434082 22.00272750854492 4.413626670837402 19.93038749694824 C 2.341286659240723 17.85804748535156 1.199996590614319 15.1027364730835 1.199996590614319 12.17200660705566 C 1.199996590614319 9.241276741027832 2.341286659240723 6.485966682434082 4.413626670837402 4.413626670837402 C 6.485966682434082 2.341286659240723 9.241276741027832 1.199996590614319 12.17200660705566 1.199996590614319 C 15.1027364730835 1.199996590614319 17.85804748535156 2.341286659240723 19.93038749694824 4.413626670837402 C 22.00272750854492 6.485966682434082 23.14401626586914 9.241276741027832 23.14401626586914 12.17200660705566 C 23.14401626586914 15.1027364730835 22.00272750854492 17.85804748535156 19.93038749694824 19.93038749694824 C 17.85804748535156 22.00272750854492 15.1027364730835 23.14401626586914 12.17200660705566 23.14401626586914 Z" stroke="none"/>
        <path d="M 12.17200660705566 2.399995803833008 C 6.783706665039062 2.399995803833008 2.399995803833008 6.783706665039062 2.399995803833008 12.17200660705566 C 2.399995803833008 17.56030654907227 6.783706665039062 21.94401741027832 12.17200660705566 21.94401741027832 C 17.56030654907227 21.94401741027832 21.94401741027832 17.56030654907227 21.94401741027832 12.17200660705566 C 21.94401741027832 6.783706665039062 17.56030654907227 2.399995803833008 12.17200660705566 2.399995803833008 M 12.17200660705566 -3.814697265625e-06 C 18.89441680908203 -3.814697265625e-06 24.34401702880859 5.449596405029297 24.34401702880859 12.17200660705566 C 24.34401702880859 18.89441680908203 18.89441680908203 24.34401702880859 12.17200660705566 24.34401702880859 C 5.449596405029297 24.34401702880859 -3.814697265625e-06 18.89441680908203 -3.814697265625e-06 12.17200660705566 C -3.814697265625e-06 5.449596405029297 5.449596405029297 -3.814697265625e-06 12.17200660705566 -3.814697265625e-06 Z" stroke="none" fill="#1b1c22"/>
      </g>
      <path id="Path_6" data-name="Path 6" d="M519.563-31.437v2.864c0,.819,3.173,3.222,3.173,3.222s3.173-2.586,3.173-3.222v-2.864" transform="translate(-510.563 34.123)" fill="none" stroke="#15151a" stroke-linecap="round" stroke-width="1.2"/>
      <path id="Path_7" data-name="Path 7" d="M519.563-25.351v-2.864c0-.819,3.173-3.222,3.173-3.222s3.173,2.586,3.173,3.222v2.864" transform="translate(-510.563 47.19)" fill="none" stroke="#15151a" stroke-linecap="round" stroke-width="1.2"/>
      <path id="Path_8" data-name="Path 8" d="M0,6.086V3.222C0,2.4,3.173,0,3.173,0S6.345,2.586,6.345,3.222V6.086" transform="translate(8.592 8.999) rotate(90)" fill="none" stroke="#15151a" stroke-linecap="round" stroke-width="1.2"/>
      <path id="Path_9" data-name="Path 9" d="M0,0V2.864c0,.819,3.173,3.222,3.173,3.222S6.345,3.5,6.345,2.864V0" transform="translate(21.838 8.999) rotate(90)" fill="none" stroke="#15151a" stroke-linecap="round" stroke-width="1.2"/>
      <g id="Ellipse_3" data-name="Ellipse 3" transform="translate(8.592 8.592)" fill="rgba(255,255,255,0)" stroke="#15151a" stroke-width="1.3">
        <circle cx="3.58" cy="3.58" r="3.58" stroke="none"/>
        <circle cx="3.58" cy="3.58" r="2.93" fill="none"/>
      </g>
    </g>
    <path id="Path_11" data-name="Path 11" d="M20.7-6.276v-13.3H11.479L.756-6.4v4.1H14.923V1.2H20.7V-2.306h4.534v-3.97Zm-14.062,0,7.677-9.4h.611v9.4Z" transform="translate(60.695 41.521)"/>
    <path id="Path_12" data-name="Path 12" d="M11.24-14.89c-2.962,0-4.746.945-5.816,2.363h-.21v-6.987H.729V1.2H5.214V-6.559c0-2.178.859-4.58,4.729-4.58,4.293,0,4.293,3.042,4.293,4.294V1.2h4.458V-6.845c0-2.346-.463-8.045-7.454-8.045ZM37.389-5.831h.165a7.737,7.737,0,0,0-3.225-7.7v.006a9.81,9.81,0,0,0-5.6-1.516c-5.584,0-8.884,2.87-8.884,8.122,0,5.351,3.218,8.122,8.884,8.122,5.429,0,8.3-2.144,8.758-5.6H33.149c-.412,1.056-1.738,1.78-4.416,1.78-2.9,0-4.222-1.065-4.529-3.215H37.389Zm-8.656-5.4c3.191,0,4,1.312,4.368,2.517H24.375C24.892-10.341,26.254-11.228,28.732-11.228Zm27.717,5.4h.165a7.737,7.737,0,0,0-3.225-7.7v.006a9.81,9.81,0,0,0-5.6-1.516c-5.584,0-8.884,2.87-8.884,8.122,0,5.351,3.218,8.122,8.884,8.122,5.429,0,8.3-2.144,8.758-5.6H52.209c-.412,1.056-1.738,1.78-4.416,1.78-2.9,0-4.222-1.065-4.529-3.215H56.449Zm-8.656-5.4c3.191,0,4,1.312,4.368,2.517H43.436C43.953-10.341,45.315-11.228,47.793-11.228ZM62.432,1.2V-19.434H57.969V1.2ZM81.225-5.831h.165a7.737,7.737,0,0,0-3.225-7.7v.006a9.81,9.81,0,0,0-5.6-1.516c-5.584,0-8.884,2.87-8.884,8.122,0,5.351,3.218,8.122,8.884,8.122,5.429,0,8.3-2.144,8.758-5.6H76.985c-.412,1.056-1.738,1.78-4.416,1.78-2.9,0-4.222-1.065-4.529-3.215H81.225Zm-8.656-5.4c3.191,0,4,1.312,4.368,2.517H68.211C68.728-10.341,70.09-11.228,72.569-11.228Zm19.694-3.654c-2.841,0-3.861.823-4.781,2.363H87.2v-2.363H82.715V1.2H87.2V-6.015c0-2.178.993-4.7,4.317-4.7a12.078,12.078,0,0,1,2.968.358l.714-4.116A13.041,13.041,0,0,0,92.262-14.882Z" transform="translate(113.051 41.521)"/>
  </g>
</svg>
