<svg xmlns="http://www.w3.org/2000/svg" width="191" height="119" viewBox="0 0 191 119">
  <g id="Group_2139" data-name="Group 2139" transform="translate(-747 -5448)">
    <rect id="Rectangle_2566" data-name="Rectangle 2566" width="191" height="119" rx="8" transform="translate(747 5448)" fill="#fff"/>
    <g id="Kia_Logo_2021" transform="translate(780.851 5480.194)">
      <path id="Path_7265" data-name="Path 7265" d="M71.767,26.925c0,.235.074.371.21.371a.635.635,0,0,0,.3-.124L110.83,2.149a3.711,3.711,0,0,1,2.227-.668h8.473a2.055,2.055,0,0,1,2.177,2.165V19.825c0,1.954-.433,3.092-2.165,4.131l-10.279,6.185a.705.705,0,0,1-.346.124c-.124,0-.247-.1-.247-.458V10.932c0-.223-.062-.371-.21-.371a.581.581,0,0,0-.3.124L81.985,28.991a3.777,3.777,0,0,1-2.165.656H61.142a2.052,2.052,0,0,1-2.177-2.177V4.153c0-.173-.074-.334-.223-.334a.606.606,0,0,0-.3.124L39.854,15.1c-.186.124-.235.21-.235.3s.037.148.161.284L53.065,28.954c.173.173.3.309.3.458,0,.124-.2.223-.433.223h-12a2.914,2.914,0,0,1-2.177-.643L30.7,20.951a.346.346,0,0,0-.247-.124.532.532,0,0,0-.247.074l-13.458,8.09a3.71,3.71,0,0,1-2.177.631H2.189A2.045,2.045,0,0,1,0,27.457V11.587C0,9.621.433,8.495,2.177,7.456L12.518,1.246a.532.532,0,0,1,.272-.087c.161,0,.247.161.247.52V22.93c0,.223.049.322.21.322a.741.741,0,0,0,.309-.124L48.488,2.112a3.78,3.78,0,0,1,2.3-.643h18.8a2.055,2.055,0,0,1,2.177,2.165l-.012,23.292Z" transform="translate(0)" fill="#131e29"/>
    </g>
    <text id="KIA" transform="translate(832 5553)" fill="#15151a" font-size="14" font-family="Kanit-Regular, Kanit" letter-spacing="-0.02em"><tspan x="0" y="0">KIA</tspan></text>
  </g>
</svg>
